<?xml version="1.0" encoding="iso-8859-1"?>
<!-- Uploaded to: SVG Repo, www.svgrepo.com, Generator: SVG Repo Mixer Tools -->
<svg height="800px" width="800px" version="1.1" id="Layer_1" xmlns="http://www.w3.org/2000/svg" xmlns:xlink="http://www.w3.org/1999/xlink" 
	 viewBox="0 0 511.999 511.999" xml:space="preserve">
<path style="fill:#E8E8E8;" d="M482.725,107.452H29.275c-11.722,0-21.225,9.503-21.225,21.225v254.645
	c0,11.722,9.503,21.225,21.225,21.225h453.449c11.722,0,21.225-9.503,21.225-21.225V128.677
	C503.95,116.956,494.447,107.452,482.725,107.452z"/>
<path style="fill:#C3C6C8;" d="M482.725,107.452H29.275c-4.914,0-9.425,1.686-13.023,4.489l212.937,127.996
	c16.506,9.889,37.115,9.889,53.622,0l212.924-128.005C492.139,109.134,487.633,107.452,482.725,107.452z"/>
<path style="opacity:0.15;enable-background:new    ;" d="M53.632,383.317c-11.722,0-21.225-9.503-21.225-21.225v-254.64h-3.132
	c-11.722,0-21.225,9.503-21.225,21.225v254.645c0,11.722,9.503,21.225,21.225,21.225h453.449c11.722,0,21.225-9.503,21.225-21.225
	v-0.005H53.632z"/>
<path style="fill:#1E252B;" d="M482.726,99.402H29.274C13.132,99.402,0,112.535,0,128.677v254.645
	c0,16.142,13.132,29.274,29.274,29.274h453.451c16.142,0,29.274-13.132,29.274-29.274V128.677
	C512,112.535,498.868,99.402,482.726,99.402z M474.17,115.503L278.673,233.032c-13.986,8.379-31.362,8.379-45.335,0.006
	L37.802,115.503H474.17z M16.475,386.387c-0.236-0.985-0.375-2.007-0.375-3.063V128.677c0-2.331,0.615-4.52,1.682-6.422
	l177.343,106.6L16.475,386.387z M29.351,396.497L209.6,237.556l15.451,9.288c9.543,5.718,20.243,8.577,30.944,8.577
	c10.705,0,21.41-2.862,30.962-8.584l15.441-9.283l180.25,158.942H29.351z M495.899,383.323c0,1.056-0.138,2.079-0.375,3.063
	L316.872,228.854l177.337-106.612c1.072,1.905,1.691,4.098,1.691,6.435V383.323z"/>
</svg>